<svg width="30" height="30" viewBox="0 0 30 30" fill="green" xmlns="http://www.w3.org/2000/svg">
<path d="M19.8889 11.8236L19.8889 11.8236C19.7377 13.4163 19.0856 17.2667 18.7558 19.0358L18.7558 19.0359C18.6106 19.8135 18.2913 20.2184 17.8587 20.2684L17.8515 20.2692L17.8515 20.2691C17.4891 20.3003 17.181 20.1788 16.9064 20.0184C16.7698 19.9386 16.6365 19.8461 16.5069 19.7542C16.4804 19.7354 16.4542 19.7167 16.428 19.698C16.3235 19.6236 16.2205 19.5501 16.1122 19.4786C15.6705 19.1875 15.3242 18.9516 14.983 18.7191L14.9777 18.7155C14.6382 18.4842 14.3035 18.2561 13.8825 17.9788C13.6221 17.8078 13.4346 17.6349 13.3351 17.4449C13.226 17.2367 13.2349 17.0323 13.3163 16.8479C13.39 16.6806 13.5217 16.5332 13.6486 16.4055C13.7087 16.345 13.7735 16.2835 13.8371 16.223L13.8541 16.2069C13.9242 16.1403 13.9938 16.0739 14.0617 16.0048L14.0632 16.0032C14.0958 15.9706 14.2357 15.841 14.4355 15.6558C14.7124 15.3991 15.1045 15.0356 15.4859 14.6757C15.818 14.3623 16.1451 14.0489 16.3916 13.8014C16.3974 13.7956 16.4032 13.7898 16.4088 13.7841C16.239 13.8938 16.0222 14.0361 15.758 14.211C15.0565 14.6753 14.0248 15.3673 12.6599 16.2872L19.8889 11.8236ZM19.8889 11.8236L19.8894 11.8178M19.8889 11.8236L19.8894 11.8178M19.8894 11.8178C19.8955 11.7323 19.8923 11.6391 19.8898 11.5711L19.8895 11.5604C19.8883 11.5288 19.8874 11.5035 19.8872 11.4822C19.887 11.4653 19.8874 11.4578 19.8874 11.4564M19.8894 11.8178L19.8874 11.4564M19.8874 11.4564L19.8926 11.4252L19.8881 11.389C19.8745 11.2802 19.8297 11.0947 19.6581 10.9563C19.5577 10.8734 19.4401 10.8315 19.3487 10.8095C19.2545 10.7868 19.1671 10.78 19.11 10.78C18.8727 10.78 18.5994 10.8442 18.0597 11.04C17.5158 11.2373 16.6729 11.5796 15.2842 12.1591C15.2841 12.1591 15.2839 12.1592 15.2837 12.1593L15.38 12.39L19.8874 11.4564ZM8.56157 15.422C8.58346 15.2265 8.72171 15.0816 8.86288 14.9775C9.01063 14.8686 9.21179 14.7672 9.45324 14.6695L12.6597 16.2873L12.52 16.08C12.12 16.35 11.76 16.49 11.44 16.48M8.56157 15.422C8.56159 15.4219 8.5616 15.4217 8.56162 15.4216L8.81 15.45L8.56153 15.4224C8.56154 15.4223 8.56156 15.4221 8.56157 15.422ZM8.56157 15.422C8.54396 15.577 8.58735 15.7155 8.67811 15.8289C8.76157 15.9332 8.87648 16.0057 8.98867 16.0607C9.16368 16.1465 9.39771 16.2189 9.63674 16.2929C9.69534 16.311 9.75424 16.3292 9.81264 16.3477C10.0717 16.434 10.3747 16.5257 10.6604 16.5975C10.9412 16.668 11.2236 16.724 11.4327 16.7299C11.4328 16.7299 11.4329 16.7299 11.4331 16.7299L11.44 16.48M11.44 16.48C11.08 16.47 10.4 16.28 9.89 16.11L11.44 16.48ZM16.8337 13.521C16.8336 13.521 16.8323 13.5217 16.8299 13.5227C16.8326 13.5214 16.8338 13.5209 16.8337 13.521ZM5.25 15C5.25 9.61807 9.61807 5.25 15 5.25C20.3819 5.25 24.75 9.61807 24.75 15C24.75 20.3819 20.3819 24.75 15 24.75C9.61807 24.75 5.25 20.3819 5.25 15Z" fill="white" stroke="white" stroke-width="0.5"/>
</svg>
