<svg width="30" height="30" viewBox="0 0 30 30" fill="none" xmlns="http://www.w3.org/2000/svg">
<path d="M21.5558 11.0629L21.5549 11.0717C21.3638 13.0852 20.545 17.9168 20.133 20.1265L20.133 20.1267C19.9423 21.1479 19.473 21.9305 18.6244 22.0284L18.6135 22.0296L18.6026 22.0306C18.0206 22.0807 17.5409 21.8815 17.1581 21.658C16.969 21.5475 16.7885 21.4219 16.6257 21.3064C16.5907 21.2816 16.5567 21.2573 16.5232 21.2335C16.3934 21.141 16.2726 21.0549 16.1445 20.9702L16.5625 20.3375M21.5558 11.0629L10.55 16.85M21.5558 11.0629L21.5564 11.0541M21.5558 11.0629L21.5564 11.0541M16.5625 20.3375L16.1452 20.9707C15.5899 20.6047 15.1544 20.3081 14.7277 20.0174L14.7215 20.0131C14.297 19.7239 13.881 19.4405 13.3578 19.0958L13.7749 18.4627L13.3588 19.0964C13.0098 18.8673 12.7006 18.6003 12.524 18.2631C12.3185 17.8708 12.3366 17.472 12.4874 17.13C12.565 16.9539 12.6754 16.7987 12.7865 16.6672C12.6358 16.7686 12.4816 16.8725 12.3238 16.9789C11.7683 17.3538 11.1577 17.6277 10.5263 17.608M16.5625 20.3375C16.703 20.4303 16.8374 20.5262 16.9684 20.6195C17.4903 20.9916 17.958 21.325 18.5375 21.275C18.8625 21.2375 19.2125 20.925 19.3875 19.9875L16.4739 14.2004C15.8162 14.8355 14.9951 15.5963 14.495 16.0598C14.2548 16.2824 14.0886 16.4364 14.05 16.475C13.9539 16.5728 13.8563 16.6656 13.7622 16.7549C13.1588 17.328 12.7044 17.7596 13.775 18.4625C14.3032 18.8105 14.7233 19.0968 15.1474 19.3857C15.5764 19.6779 16.0094 19.973 16.5625 20.3375ZM10.5263 17.608L10.55 16.85M10.5263 17.608C10.5272 17.608 10.5281 17.608 10.5289 17.6081L10.55 16.85M10.5263 17.608C10.2133 17.5989 9.82118 17.5183 9.46686 17.4293C9.09757 17.3365 8.70904 17.2189 8.37798 17.1087M10.55 16.85C10.1 16.8375 9.25 16.6 8.6125 16.3875M8.37798 17.1087C8.37967 17.1092 8.38136 17.1098 8.38304 17.1103L8.6125 16.3875M8.37798 17.1087C8.31575 17.089 8.25016 17.0688 8.18262 17.0479C7.88225 16.9552 7.54324 16.8506 7.28951 16.7262C7.12422 16.6451 6.91331 16.5193 6.74959 16.3148C6.56369 16.0825 6.4733 15.7916 6.50896 15.4774M8.37798 17.1087C8.37622 17.1081 8.37445 17.1075 8.37269 17.1069L8.6125 16.3875M8.6125 16.3875L6.50896 15.4774M17.5 13.1125L17.2885 13.0663L17.2346 13.131L17.2903 13.3812C17.4145 13.2461 17.4909 13.1509 17.5 13.1125ZM17.5 13.1125L17.2914 13.0629L17.3061 13.0452L17.4375 12.8875M17.5 13.1125C17.5087 13.0728 17.5075 13.0315 17.4966 12.9923C17.4857 12.9531 17.4654 12.9171 17.4375 12.8875M17.4375 12.8875C17.3709 12.832 17.2846 12.8455 17.2048 12.858C17.1948 12.8596 17.1848 12.8611 17.175 12.8625M17.4375 12.8875L17.2598 13.0553L17.2155 13.0448L17.175 12.8625M17.175 12.8625C17.155 12.867 17.0832 12.9074 16.9594 12.9838L17.2005 13.0412L17.175 12.8625ZM6.50896 15.4774C6.509 15.4771 6.50903 15.4767 6.50907 15.4764L7.2625 15.5625L6.50881 15.4788C6.50886 15.4783 6.50891 15.4779 6.50896 15.4774ZM21.5564 11.0541C21.5659 10.9218 21.5609 10.7841 21.558 10.7019L21.5578 10.698L21.5574 10.6864C21.5562 10.6512 21.5553 10.6273 21.5549 10.6082M21.5564 11.0541L21.5549 10.6082M21.5549 10.6082L21.5662 10.5407L21.5525 10.431C21.5291 10.2436 21.4467 9.87718 21.1046 9.60009C20.9072 9.43777 20.6887 9.36429 20.5404 9.32849C20.3841 9.29076 20.2393 9.2792 20.1375 9.2792C19.7565 9.2792 19.3511 9.38478 18.6726 9.63091C17.9811 9.88179 16.9177 10.3138 15.1843 11.0371L21.5549 10.6082ZM17.1145 13.5664C17.1654 13.514 17.2123 13.4649 17.2546 13.4197L17.2165 13.1528L16.952 13.4701C17.0068 13.5158 17.0628 13.5462 17.1145 13.5664ZM17.2168 13.0507L17.2558 13.0592L17.2251 13.0881L17.2209 13.0689L17.2168 13.0507ZM17.2051 13.0733L17.2094 13.103L16.8862 13.4082C16.8294 13.3481 16.7881 13.275 16.766 13.1952C16.7587 13.169 16.7535 13.1423 16.7505 13.1154C16.8258 13.0673 16.8912 13.0261 16.9467 12.9917L17.2014 13.0473L17.2051 13.0733ZM7.88505 14.1796L8.1875 14.875L7.90329 14.172C7.90015 14.1732 7.89703 14.1745 7.8939 14.1758C7.89095 14.1771 7.888 14.1783 7.88505 14.1796ZM3.25833 15C3.25833 8.51885 8.51882 3.25836 15 3.25836C21.4812 3.25836 26.7417 8.51885 26.7417 15C26.7417 21.4812 21.4812 26.7417 15 26.7417C8.51882 26.7417 3.25833 21.4812 3.25833 15Z" fill="white" stroke="white" stroke-width="1.51667"/>
</svg>
