<svg width="30" height="30" viewBox="0 0 74 73" fill="none" xmlns="http://www.w3.org/2000/svg">
<path d="M25.9122 41.6474C27.1139 41.6846 28.366 41.161 29.6344 40.3049C33.7748 37.5143 36.9044 35.4153 39.0325 34.0067C39.8341 33.4761 40.4917 33.0447 41.0067 32.7118C40.9895 32.7291 40.9721 32.7466 40.9546 32.7642C40.2066 33.515 39.2144 34.4659 38.2072 35.4163C37.0503 36.508 35.8609 37.6105 35.0209 38.3892C34.4148 38.951 33.9906 39.3443 33.8917 39.4432L33.8917 39.4432L33.887 39.4479C33.681 39.6575 33.4701 39.859 33.2573 40.0611C33.2402 40.0774 33.2231 40.0937 33.2059 40.11C33.0128 40.2934 32.8164 40.4799 32.634 40.6634C32.249 41.0509 31.8496 41.498 31.6259 42.0053C31.3792 42.5646 31.3522 43.1847 31.6831 43.8163C31.985 44.3927 32.5535 44.917 33.3434 45.4357C34.6204 46.277 35.6358 46.9688 36.6655 47.6704L36.6816 47.6814C37.7168 48.3866 38.7674 49.1023 40.1072 49.9854C40.4356 50.2023 40.748 50.425 41.0647 50.6508C41.1442 50.7074 41.2239 50.7642 41.3042 50.8212C41.6972 51.1 42.1017 51.3805 42.516 51.6225C43.349 52.1091 44.2835 52.4777 45.3827 52.3829L45.3936 52.382L45.4045 52.3808C46.7167 52.2293 47.6854 51.001 48.1257 48.6422L48.1257 48.6421C49.1262 43.2759 51.1042 31.5963 51.5628 26.7651L51.5637 26.7563L51.5643 26.7474C51.5828 26.4882 51.5731 26.2055 51.5658 25.999L51.5646 25.9665C51.5611 25.8706 51.5584 25.7939 51.5577 25.7293C51.5571 25.6783 51.5583 25.6554 51.5583 25.6512L51.5741 25.5564L51.5604 25.4467C51.5191 25.1168 51.3834 24.554 50.8627 24.1342C50.5582 23.8826 50.2014 23.7558 49.9242 23.6888C49.6386 23.6199 49.3733 23.5994 49.2002 23.5994C48.4804 23.5994 47.6514 23.7942 46.0145 24.388C44.3644 24.9867 41.8075 26.025 37.5952 27.7827C34.6449 28.9993 28.7554 31.5495 19.908 35.3975C19.1756 35.694 18.5655 36.0015 18.1173 36.3319C17.6891 36.6477 17.2697 37.087 17.2033 37.6802C17.1499 38.1503 17.2815 38.5705 17.5568 38.9144C17.81 39.2306 18.1586 39.4507 18.4989 39.6176C19.0297 39.8779 19.7396 40.0975 20.4647 40.3218C20.6425 40.3768 20.8212 40.432 20.9984 40.4883C21.7842 40.7501 22.7033 41.0282 23.5697 41.2457C24.4215 41.4597 25.2779 41.6296 25.9122 41.6474ZM25.9122 41.6474C25.9118 41.6474 25.9113 41.6474 25.9109 41.6474L25.9346 40.8897L25.9135 41.6475C25.9131 41.6474 25.9126 41.6474 25.9122 41.6474ZM42.2953 31.9136C42.295 31.9139 42.2911 31.9159 42.2841 31.9189C42.2921 31.9149 42.2957 31.9134 42.2953 31.9136ZM7.15824 36.4001C7.15824 20.0749 20.4081 6.82508 36.7332 6.82508C53.0584 6.82508 66.3082 20.0749 66.3082 36.4001C66.3082 52.7253 53.0584 65.9751 36.7332 65.9751C20.4081 65.9751 7.15824 52.7253 7.15824 36.4001Z" fill="white" stroke="white" stroke-width="1.51667"/>
</svg>
