<svg width="30" height="30" viewBox="0 0 30 30" fill="none" xmlns="http://www.w3.org/2000/svg">
<mask id="path-1-inside-1_603_45" fill="white">
<path d="M15.001 12C14.2054 12 13.4423 12.3161 12.8797 12.8787C12.3171 13.4413 12.001 14.2044 12.001 15C12.001 15.7956 12.3171 16.5587 12.8797 17.1213C13.4423 17.6839 14.2054 18 15.001 18C15.7966 18 16.5597 17.6839 17.1223 17.1213C17.6849 16.5587 18.001 15.7956 18.001 15C18.001 14.2044 17.6849 13.4413 17.1223 12.8787C16.5597 12.3161 15.7966 12 15.001 12ZM15.001 10C16.3271 10 17.5989 10.5268 18.5365 11.4645C19.4742 12.4021 20.001 13.6739 20.001 15C20.001 16.3261 19.4742 17.5979 18.5365 18.5355C17.5989 19.4732 16.3271 20 15.001 20C13.6749 20 12.4031 19.4732 11.4655 18.5355C10.5278 17.5979 10.001 16.3261 10.001 15C10.001 13.6739 10.5278 12.4021 11.4655 11.4645C12.4031 10.5268 13.6749 10 15.001 10ZM21.501 9.75C21.501 10.0815 21.3693 10.3995 21.1349 10.6339C20.9005 10.8683 20.5825 11 20.251 11C19.9195 11 19.6015 10.8683 19.3671 10.6339C19.1327 10.3995 19.001 10.0815 19.001 9.75C19.001 9.41848 19.1327 9.10054 19.3671 8.86612C19.6015 8.6317 19.9195 8.5 20.251 8.5C20.5825 8.5 20.9005 8.6317 21.1349 8.86612C21.3693 9.10054 21.501 9.41848 21.501 9.75ZM15.001 7C12.527 7 12.123 7.007 10.972 7.058C10.188 7.095 9.662 7.2 9.174 7.39C8.76583 7.54037 8.39672 7.78063 8.094 8.093C7.78127 8.39562 7.54066 8.76474 7.39 9.173C7.2 9.663 7.095 10.188 7.059 10.971C7.007 12.075 7 12.461 7 15C7 17.475 7.007 17.878 7.058 19.029C7.095 19.812 7.2 20.339 7.389 20.826C7.559 21.261 7.759 21.574 8.091 21.906C8.428 22.242 8.741 22.443 9.171 22.609C9.665 22.8 10.191 22.906 10.971 22.942C12.075 22.994 12.461 23 15 23C17.475 23 17.878 22.993 19.029 22.942C19.811 22.905 20.337 22.8 20.826 22.611C21.2342 22.4606 21.6033 22.2204 21.906 21.908C22.243 21.572 22.444 21.259 22.61 20.828C22.8 20.336 22.906 19.81 22.942 19.028C22.994 17.925 23 17.538 23 15C23 12.526 22.993 12.122 22.942 10.971C22.905 10.189 22.799 9.661 22.61 9.173C22.4596 8.76483 22.2194 8.39572 21.907 8.093C21.6044 7.78027 21.2353 7.53966 20.827 7.389C20.337 7.199 19.811 7.094 19.029 7.058C17.926 7.006 17.54 7 15 7M15 5C17.717 5 18.056 5.01 19.123 5.06C20.187 5.11 20.913 5.277 21.55 5.525C22.21 5.779 22.766 6.123 23.322 6.678C23.8307 7.17773 24.2242 7.78247 24.475 8.45C24.722 9.087 24.89 9.813 24.94 10.878C24.987 11.944 25 12.283 25 15C25 17.717 24.99 18.056 24.94 19.122C24.89 20.188 24.722 20.912 24.475 21.55C24.2242 22.2175 23.8307 22.8223 23.322 23.322C22.8223 23.8307 22.2175 24.2242 21.55 24.475C20.913 24.722 20.187 24.89 19.123 24.94C18.056 24.987 17.717 25 15 25C12.283 25 11.944 24.99 10.877 24.94C9.813 24.89 9.088 24.722 8.45 24.475C7.78247 24.2242 7.17773 23.8307 6.678 23.322C6.16931 22.8223 5.77582 22.2175 5.525 21.55C5.277 20.913 5.11 20.187 5.06 19.122C5.012 18.056 5 17.717 5 15C5 12.283 5.01 11.944 5.06 10.878C5.11 9.812 5.277 9.088 5.525 8.45C5.77582 7.78247 6.16931 7.17773 6.678 6.678C7.17773 6.16931 7.78247 5.77582 8.45 5.525C9.087 5.277 9.812 5.11 10.877 5.06C11.945 5.013 12.284 5 15.001 5"/>
</mask>
<path d="M15.001 12C14.2054 12 13.4423 12.3161 12.8797 12.8787C12.3171 13.4413 12.001 14.2044 12.001 15C12.001 15.7956 12.3171 16.5587 12.8797 17.1213C13.4423 17.6839 14.2054 18 15.001 18C15.7966 18 16.5597 17.6839 17.1223 17.1213C17.6849 16.5587 18.001 15.7956 18.001 15C18.001 14.2044 17.6849 13.4413 17.1223 12.8787C16.5597 12.3161 15.7966 12 15.001 12ZM15.001 10C16.3271 10 17.5989 10.5268 18.5365 11.4645C19.4742 12.4021 20.001 13.6739 20.001 15C20.001 16.3261 19.4742 17.5979 18.5365 18.5355C17.5989 19.4732 16.3271 20 15.001 20C13.6749 20 12.4031 19.4732 11.4655 18.5355C10.5278 17.5979 10.001 16.3261 10.001 15C10.001 13.6739 10.5278 12.4021 11.4655 11.4645C12.4031 10.5268 13.6749 10 15.001 10ZM21.501 9.75C21.501 10.0815 21.3693 10.3995 21.1349 10.6339C20.9005 10.8683 20.5825 11 20.251 11C19.9195 11 19.6015 10.8683 19.3671 10.6339C19.1327 10.3995 19.001 10.0815 19.001 9.75C19.001 9.41848 19.1327 9.10054 19.3671 8.86612C19.6015 8.6317 19.9195 8.5 20.251 8.5C20.5825 8.5 20.9005 8.6317 21.1349 8.86612C21.3693 9.10054 21.501 9.41848 21.501 9.75ZM15.001 7C12.527 7 12.123 7.007 10.972 7.058C10.188 7.095 9.662 7.2 9.174 7.39C8.76583 7.54037 8.39672 7.78063 8.094 8.093C7.78127 8.39562 7.54066 8.76474 7.39 9.173C7.2 9.663 7.095 10.188 7.059 10.971C7.007 12.075 7 12.461 7 15C7 17.475 7.007 17.878 7.058 19.029C7.095 19.812 7.2 20.339 7.389 20.826C7.559 21.261 7.759 21.574 8.091 21.906C8.428 22.242 8.741 22.443 9.171 22.609C9.665 22.8 10.191 22.906 10.971 22.942C12.075 22.994 12.461 23 15 23C17.475 23 17.878 22.993 19.029 22.942C19.811 22.905 20.337 22.8 20.826 22.611C21.2342 22.4606 21.6033 22.2204 21.906 21.908C22.243 21.572 22.444 21.259 22.61 20.828C22.8 20.336 22.906 19.81 22.942 19.028C22.994 17.925 23 17.538 23 15C23 12.526 22.993 12.122 22.942 10.971C22.905 10.189 22.799 9.661 22.61 9.173C22.4596 8.76483 22.2194 8.39572 21.907 8.093C21.6044 7.78027 21.2353 7.53966 20.827 7.389C20.337 7.199 19.811 7.094 19.029 7.058C17.926 7.006 17.54 7 15 7M15 5C17.717 5 18.056 5.01 19.123 5.06C20.187 5.11 20.913 5.277 21.55 5.525C22.21 5.779 22.766 6.123 23.322 6.678C23.8307 7.17773 24.2242 7.78247 24.475 8.45C24.722 9.087 24.89 9.813 24.94 10.878C24.987 11.944 25 12.283 25 15C25 17.717 24.99 18.056 24.94 19.122C24.89 20.188 24.722 20.912 24.475 21.55C24.2242 22.2175 23.8307 22.8223 23.322 23.322C22.8223 23.8307 22.2175 24.2242 21.55 24.475C20.913 24.722 20.187 24.89 19.123 24.94C18.056 24.987 17.717 25 15 25C12.283 25 11.944 24.99 10.877 24.94C9.813 24.89 9.088 24.722 8.45 24.475C7.78247 24.2242 7.17773 23.8307 6.678 23.322C6.16931 22.8223 5.77582 22.2175 5.525 21.55C5.277 20.913 5.11 20.187 5.06 19.122C5.012 18.056 5 17.717 5 15C5 12.283 5.01 11.944 5.06 10.878C5.11 9.812 5.277 9.088 5.525 8.45C5.77582 7.78247 6.16931 7.17773 6.678 6.678C7.17773 6.16931 7.78247 5.77582 8.45 5.525C9.087 5.277 9.812 5.11 10.877 5.06C11.945 5.013 12.284 5 15.001 5" fill="white"/>
<path d="M15.001 18V18.3V18ZM15.001 10V9.7V10ZM20.001 15H19.701H20.001ZM15.001 20V19.7V20ZM10.972 7.058L10.9587 6.75829L10.9579 6.75833L10.972 7.058ZM9.174 7.39L9.27772 7.67155L9.28284 7.66956L9.174 7.39ZM8.094 8.093L8.30273 8.3087L8.30943 8.30178L8.094 8.093ZM7.39 9.173L7.66975 9.28147L7.67145 9.27686L7.39 9.173ZM7.059 10.971L7.35867 10.9851L7.35868 10.9848L7.059 10.971ZM7.058 19.029L6.75829 19.0423L6.75833 19.0432L7.058 19.029ZM7.389 20.826L7.10932 20.9345L7.10958 20.9352L7.389 20.826ZM8.091 21.906L7.87887 22.1181L7.87918 22.1184L8.091 21.906ZM9.171 22.609L9.27919 22.3292L9.27904 22.3291L9.171 22.609ZM10.971 22.942L10.9851 22.6423L10.9848 22.6423L10.971 22.942ZM19.029 22.942L19.0423 23.2417L19.0432 23.2417L19.029 22.942ZM20.826 22.611L20.7223 22.3295L20.7178 22.3312L20.826 22.611ZM21.906 21.908L21.6942 21.6955L21.6906 21.6992L21.906 21.908ZM22.61 20.828L22.3301 20.7199L22.33 20.7202L22.61 20.828ZM22.942 19.028L22.6423 19.0139L22.6423 19.0142L22.942 19.028ZM22.942 10.971L23.2417 10.9577L23.2417 10.9568L22.942 10.971ZM22.61 9.173L22.3285 9.27672L22.3302 9.28135L22.61 9.173ZM21.907 8.093L21.6913 8.30173L21.6982 8.30843L21.907 8.093ZM20.827 7.389L20.7185 7.66875L20.7231 7.67045L20.827 7.389ZM19.029 7.058L19.0149 7.35767L19.0152 7.35768L19.029 7.058ZM19.123 5.06L19.1371 4.76033L19.137 4.76033L19.123 5.06ZM21.55 5.525L21.4412 5.80456L21.4422 5.80498L21.55 5.525ZM23.322 6.678L23.1101 6.89033L23.1118 6.89201L23.322 6.678ZM24.475 8.45L24.1942 8.55552L24.1953 8.55846L24.475 8.45ZM24.94 10.878L25.2397 10.8648L25.2397 10.8639L24.94 10.878ZM24.475 21.55L24.1952 21.4417L24.1942 21.4445L24.475 21.55ZM23.322 23.322L23.1117 23.108L23.108 23.1118L23.322 23.322ZM21.55 24.475L21.4445 24.1942L21.4415 24.1953L21.55 24.475ZM19.123 24.94L19.1362 25.2397L19.1371 25.2397L19.123 24.94ZM10.877 24.94L10.8629 25.2397L10.863 25.2397L10.877 24.94ZM8.45 24.475L8.55832 24.1952L8.55552 24.1942L8.45 24.475ZM6.678 23.322L6.89204 23.1117L6.88824 23.108L6.678 23.322ZM5.525 21.55L5.80585 21.4445L5.80456 21.4412L5.525 21.55ZM5.06 19.122L4.7603 19.1355L4.76033 19.1361L5.06 19.122ZM5.525 8.45L5.80464 8.5587L5.80583 8.55552L5.525 8.45ZM6.678 6.678L6.88827 6.89204L6.89201 6.88824L6.678 6.678ZM8.45 5.525L8.55553 5.80585L8.55884 5.80456L8.45 5.525ZM10.877 5.06L10.8638 4.76029L10.8629 4.76033L10.877 5.06ZM15.001 11.7C14.1258 11.7 13.2864 12.0477 12.6675 12.6665L13.0918 13.0908C13.5982 12.5845 14.2849 12.3 15.001 12.3V11.7ZM12.6675 12.6665C12.0487 13.2854 11.701 14.1248 11.701 15H12.301C12.301 14.2839 12.5855 13.5972 13.0918 13.0908L12.6675 12.6665ZM11.701 15C11.701 15.8752 12.0487 16.7146 12.6675 17.3335L13.0918 16.9092C12.5855 16.4028 12.301 15.7161 12.301 15H11.701ZM12.6675 17.3335C13.2864 17.9523 14.1258 18.3 15.001 18.3V17.7C14.2849 17.7 13.5982 17.4155 13.0918 16.9092L12.6675 17.3335ZM15.001 18.3C15.8762 18.3 16.7156 17.9523 17.3345 17.3335L16.9102 16.9092C16.4038 17.4155 15.7171 17.7 15.001 17.7V18.3ZM17.3345 17.3335C17.9533 16.7146 18.301 15.8752 18.301 15H17.701C17.701 15.7161 17.4165 16.4028 16.9102 16.9092L17.3345 17.3335ZM18.301 15C18.301 14.1248 17.9533 13.2854 17.3345 12.6665L16.9102 13.0908C17.4165 13.5972 17.701 14.2839 17.701 15H18.301ZM17.3345 12.6665C16.7156 12.0477 15.8762 11.7 15.001 11.7V12.3C15.7171 12.3 16.4038 12.5845 16.9102 13.0908L17.3345 12.6665ZM15.001 10.3C16.2475 10.3 17.443 10.7952 18.3244 11.6766L18.7487 11.2523C17.7547 10.2584 16.4066 9.7 15.001 9.7V10.3ZM18.3244 11.6766C19.2058 12.558 19.701 13.7535 19.701 15H20.301C20.301 13.5944 19.7426 12.2463 18.7487 11.2523L18.3244 11.6766ZM19.701 15C19.701 16.2465 19.2058 17.442 18.3244 18.3234L18.7487 18.7477C19.7426 17.7537 20.301 16.4056 20.301 15H19.701ZM18.3244 18.3234C17.443 19.2048 16.2475 19.7 15.001 19.7V20.3C16.4066 20.3 17.7547 19.7416 18.7487 18.7477L18.3244 18.3234ZM15.001 19.7C13.7545 19.7 12.559 19.2048 11.6776 18.3234L11.2533 18.7477C12.2473 19.7416 13.5954 20.3 15.001 20.3V19.7ZM11.6776 18.3234C10.7962 17.442 10.301 16.2465 10.301 15H9.701C9.701 16.4056 10.2594 17.7537 11.2533 18.7477L11.6776 18.3234ZM10.301 15C10.301 13.7535 10.7962 12.558 11.6776 11.6766L11.2533 11.2523C10.2594 12.2463 9.701 13.5944 9.701 15H10.301ZM11.6776 11.6766C12.559 10.7952 13.7545 10.3 15.001 10.3V9.7C13.5954 9.7 12.2473 10.2584 11.2533 11.2523L11.6776 11.6766ZM21.201 9.75C21.201 10.002 21.1009 10.2436 20.9228 10.4218L21.347 10.846C21.6377 10.5553 21.801 10.1611 21.801 9.75H21.201ZM20.9228 10.4218C20.7446 10.5999 20.503 10.7 20.251 10.7V11.3C20.6621 11.3 21.0563 11.1367 21.347 10.846L20.9228 10.4218ZM20.251 10.7C19.999 10.7 19.7574 10.5999 19.5792 10.4218L19.155 10.846C19.4457 11.1367 19.8399 11.3 20.251 11.3V10.7ZM19.5792 10.4218C19.4011 10.2436 19.301 10.002 19.301 9.75H18.701C18.701 10.1611 18.8643 10.5553 19.155 10.846L19.5792 10.4218ZM19.301 9.75C19.301 9.49804 19.4011 9.25641 19.5792 9.07825L19.155 8.65398C18.8643 8.94467 18.701 9.33891 18.701 9.75H19.301ZM19.5792 9.07825C19.7574 8.90009 19.999 8.8 20.251 8.8V8.2C19.8399 8.2 19.4457 8.3633 19.155 8.65398L19.5792 9.07825ZM20.251 8.8C20.503 8.8 20.7446 8.90009 20.9228 9.07825L21.347 8.65398C21.0563 8.3633 20.6621 8.2 20.251 8.2V8.8ZM20.9228 9.07825C21.1009 9.25641 21.201 9.49804 21.201 9.75H21.801C21.801 9.33891 21.6377 8.94467 21.347 8.65398L20.9228 9.07825ZM15.001 6.7C12.5261 6.7 12.1166 6.70699 10.9587 6.75829L10.9853 7.35771C12.1294 7.30701 12.5279 7.3 15.001 7.3V6.7ZM10.9579 6.75833C10.1515 6.79639 9.59162 6.90547 9.06516 7.11044L9.28284 7.66956C9.73238 7.49453 10.2245 7.39361 10.9861 7.35767L10.9579 6.75833ZM9.07029 7.1085C8.6199 7.27442 8.2126 7.53954 7.87857 7.88422L8.30943 8.30178C8.58084 8.02173 8.91176 7.80632 9.27771 7.6715L9.07029 7.1085ZM7.88538 7.87741C7.5403 8.21134 7.2748 8.61864 7.10855 9.06914L7.67145 9.27686C7.80652 8.91084 8.02224 8.5799 8.30262 8.30859L7.88538 7.87741ZM7.11029 9.06454C6.9055 9.5927 6.79636 10.1515 6.75932 10.9572L7.35868 10.9848C7.39364 10.2245 7.4945 9.7333 7.66971 9.28146L7.11029 9.06454ZM6.75933 10.9569C6.70698 12.0684 6.7 12.4604 6.7 15H7.3C7.3 12.4616 7.30702 12.0816 7.35867 10.9851L6.75933 10.9569ZM6.7 15C6.7 17.4759 6.70699 17.8844 6.75829 19.0423L7.35771 19.0157C7.30701 17.8716 7.3 17.4741 7.3 15H6.7ZM6.75833 19.0432C6.79639 19.8484 6.90545 20.4092 7.10932 20.9345L7.66868 20.7175C7.49455 20.2688 7.39361 19.7756 7.35767 19.0148L6.75833 19.0432ZM7.10958 20.9352C7.29401 21.4071 7.51633 21.7556 7.87887 22.1181L8.30313 21.6939C8.00167 21.3924 7.82399 21.1149 7.66842 20.7168L7.10958 20.9352ZM7.87918 22.1184C8.24586 22.484 8.59426 22.7079 9.06296 22.8889L9.27904 22.3291C8.88774 22.1781 8.61014 22 8.30282 21.6936L7.87918 22.1184ZM9.06281 22.8888C9.59441 23.0943 10.1539 23.2046 10.9572 23.2417L10.9848 22.6423C10.2281 22.6074 9.73559 22.5056 9.27919 22.3292L9.06281 22.8888ZM10.9569 23.2417C12.0685 23.294 12.4606 23.3 15 23.3V22.7C12.4614 22.7 12.0815 22.694 10.9851 22.6423L10.9569 23.2417ZM15 23.3C17.4759 23.3 17.8844 23.293 19.0423 23.2417L19.0157 22.6423C17.8716 22.693 17.4741 22.7 15 22.7V23.3ZM19.0432 23.2417C19.8476 23.2036 20.4072 23.0945 20.9342 22.8908L20.7178 22.3312C20.2668 22.5055 19.7744 22.6064 19.0148 22.6423L19.0432 23.2417ZM20.9297 22.8925C21.3801 22.7266 21.7874 22.4615 22.1214 22.1168L21.6906 21.6992C21.4192 21.9793 21.0882 22.1947 20.7223 22.3295L20.9297 22.8925ZM22.1178 22.1204C22.4849 21.7544 22.709 21.4057 22.89 20.9358L22.33 20.7202C22.179 21.1123 22.0011 21.3896 21.6942 21.6956L22.1178 22.1204ZM22.8899 20.9361C23.0944 20.4064 23.2046 19.847 23.2417 19.0418L22.6423 19.0142C22.6074 19.773 22.5056 20.2656 22.3301 20.7199L22.8899 20.9361ZM23.2417 19.0421C23.294 17.9315 23.3 17.5384 23.3 15H22.7C22.7 17.5376 22.694 17.9185 22.6423 19.0139L23.2417 19.0421ZM23.3 15C23.3 12.5251 23.293 12.1156 23.2417 10.9577L22.6423 10.9843C22.693 12.1284 22.7 12.5269 22.7 15H23.3ZM23.2417 10.9568C23.2036 10.1522 23.0935 9.5906 22.8898 9.06465L22.3302 9.28135C22.5046 9.7314 22.6064 10.2258 22.6423 10.9852L23.2417 10.9568ZM22.8915 9.06929C22.7256 8.6189 22.4605 8.2116 22.1158 7.87757L21.6982 8.30843C21.9783 8.57984 22.1937 8.91076 22.3285 9.27671L22.8915 9.06929ZM22.1226 7.88438C21.7887 7.5393 21.3814 7.2738 20.9309 7.10755L20.7231 7.67045C21.0892 7.80552 21.4201 8.02124 21.6914 8.30162L22.1226 7.88438ZM20.9355 7.10929C20.4073 6.90449 19.8475 6.79536 19.0428 6.75832L19.0152 7.35768C19.7745 7.39264 20.2667 7.49351 20.7185 7.66871L20.9355 7.10929ZM19.0431 6.75833C17.9325 6.70597 17.5404 6.7 15 6.7V7.3C17.5396 7.3 17.9195 7.30603 19.0149 7.35767L19.0431 6.75833ZM15 5.3C17.7159 5.3 18.0492 5.31001 19.109 5.35967L19.137 4.76033C18.0628 4.70999 17.7181 4.7 15 4.7V5.3ZM19.1089 5.35967C20.1452 5.40837 20.8386 5.56996 21.4412 5.80456L21.6588 5.24544C20.9874 4.98404 20.2288 4.81163 19.1371 4.76033L19.1089 5.35967ZM21.4422 5.80498C22.0649 6.04461 22.585 6.36618 23.1101 6.89032L23.5339 6.46568C22.947 5.87982 22.3551 5.51339 21.6577 5.24502L21.4422 5.80498ZM23.1118 6.89201C23.5893 7.36115 23.9587 7.92886 24.1942 8.55552L24.7558 8.34448C24.4897 7.63608 24.0721 6.99432 23.5322 6.46399L23.1118 6.89201ZM24.1953 8.55846C24.4291 9.16149 24.5916 9.85508 24.6403 10.8921L25.2397 10.8639C25.1884 9.77092 25.0149 9.01251 24.7547 8.34154L24.1953 8.55846ZM24.6403 10.8912C24.687 11.9508 24.7 12.2848 24.7 15H25.3C25.3 12.2812 25.287 11.9372 25.2397 10.8648L24.6403 10.8912ZM24.7 15C24.7 17.7159 24.69 18.0492 24.6403 19.1079L25.2397 19.1361C25.29 18.0628 25.3 17.7181 25.3 15H24.7ZM24.6403 19.1079C24.5917 20.1458 24.4292 20.8375 24.1952 21.4417L24.7548 21.6583C25.0148 20.9865 25.1884 20.2302 25.2397 19.1361L24.6403 19.1079ZM24.1942 21.4445C23.9587 22.0711 23.5893 22.6389 23.1118 23.108L23.5322 23.536C24.0721 23.0057 24.4897 22.3639 24.7558 21.6555L24.1942 21.4445ZM23.108 23.1118C22.6389 23.5893 22.0711 23.9587 21.4445 24.1942L21.6555 24.7558C22.3639 24.4897 23.0057 24.0721 23.536 23.5322L23.108 23.1118ZM21.4415 24.1953C20.8385 24.4291 20.1449 24.5916 19.1089 24.6403L19.1371 25.2397C20.2291 25.1884 20.9875 25.0149 21.6585 24.7547L21.4415 24.1953ZM19.1098 24.6403C18.0492 24.687 17.7151 24.7 15 24.7V25.3C17.7189 25.3 18.0628 25.287 19.1362 25.2397L19.1098 24.6403ZM15 24.7C12.2841 24.7 11.9508 24.69 10.891 24.6403L10.863 25.2397C11.9372 25.29 12.2819 25.3 15 25.3V24.7ZM10.8911 24.6403C9.8552 24.5917 9.16252 24.4292 8.55831 24.1952L8.34169 24.7548C9.01348 25.0148 9.7708 25.1883 10.8629 25.2397L10.8911 24.6403ZM8.55552 24.1942C7.92886 23.9587 7.36115 23.5893 6.89201 23.1118L6.46399 23.5322C6.99432 24.0721 7.63608 24.4897 8.34448 24.7558L8.55552 24.1942ZM6.88824 23.108C6.41069 22.6389 6.04129 22.0711 5.80583 21.4445L5.24417 21.6555C5.51034 22.3639 5.92792 23.0057 6.46776 23.536L6.88824 23.108ZM5.80456 21.4412C5.56996 20.8386 5.40837 20.1452 5.35967 19.1079L4.76033 19.1361C4.81163 20.2288 4.98404 20.9874 5.24544 21.6588L5.80456 21.4412ZM5.3597 19.1085C5.312 18.0492 5.3 17.7154 5.3 15H4.7C4.7 17.7186 4.712 18.0628 4.7603 19.1355L5.3597 19.1085ZM5.3 15C5.3 12.2841 5.31001 11.9508 5.35967 10.8921L4.76033 10.8639C4.70999 11.9372 4.7 12.2819 4.7 15H5.3ZM5.35967 10.8921C5.40836 9.85391 5.56993 9.16245 5.80462 8.55869L5.24538 8.34131C4.98407 9.01355 4.81164 9.77009 4.76033 10.8639L5.35967 10.8921ZM5.80583 8.55552C6.04129 7.92886 6.41069 7.36115 6.88824 6.89201L6.46776 6.46399C5.92792 6.99432 5.51034 7.63608 5.24417 8.34448L5.80583 8.55552ZM6.89201 6.88824C7.36115 6.41069 7.92886 6.04129 8.55552 5.80583L8.34448 5.24417C7.63608 5.51034 6.99432 5.92792 6.46399 6.46776L6.89201 6.88824ZM8.55884 5.80456C9.16146 5.56995 9.85385 5.40837 10.8911 5.35967L10.8629 4.76033C9.77015 4.81163 9.01254 4.98405 8.34116 5.24544L8.55884 5.80456ZM10.8902 5.35971C11.9518 5.31299 12.2859 5.3 15.001 5.3V4.7C12.2821 4.7 11.9382 4.71301 10.8638 4.76029L10.8902 5.35971Z" fill="white" mask="url(#path-1-inside-1_603_45)"/>
</svg>
