<svg width="124" height="21" viewBox="0 0 124 21" fill="none" xmlns="http://www.w3.org/2000/svg">
<g clip-path="url(#clip0_629_229)">
<path d="M20.0684 7.82353V16.5198C20.0684 16.5198 15.0302 18.1009 12.32 18.1009C9.60976 18.1009 4.57157 16.5198 4.57157 16.5198V7.82353M22.6512 6.24239L12.32 2.28955L1.98877 6.24239L12.32 10.9858L22.6512 6.24239ZM22.6512 6.24239V13.3575" stroke="#203C8F" stroke-width="2.00502"/>
</g>
<path d="M33.1529 10.03H38.5529V11.305H33.1529V10.03ZM33.2879 14.695H39.4079V16H31.7879V5.5H39.1979V6.805H33.2879V14.695ZM41.8367 16V5.5H46.2617C47.3817 5.5 48.3667 5.72 49.2167 6.16C50.0767 6.6 50.7417 7.215 51.2117 8.005C51.6917 8.795 51.9317 9.71 51.9317 10.75C51.9317 11.79 51.6917 12.705 51.2117 13.495C50.7417 14.285 50.0767 14.9 49.2167 15.34C48.3667 15.78 47.3817 16 46.2617 16H41.8367ZM43.3367 14.695H46.1717C47.0417 14.695 47.7917 14.53 48.4217 14.2C49.0617 13.87 49.5567 13.41 49.9067 12.82C50.2567 12.22 50.4317 11.53 50.4317 10.75C50.4317 9.96 50.2567 9.27 49.9067 8.68C49.5567 8.09 49.0617 7.63 48.4217 7.3C47.7917 6.97 47.0417 6.805 46.1717 6.805H43.3367V14.695ZM58.5793 16.12C57.1993 16.12 56.1143 15.725 55.3243 14.935C54.5343 14.145 54.1393 12.99 54.1393 11.47V5.5H55.6393V11.41C55.6393 12.58 55.8943 13.435 56.4043 13.975C56.9243 14.515 57.6543 14.785 58.5943 14.785C59.5443 14.785 60.2743 14.515 60.7843 13.975C61.3043 13.435 61.5643 12.58 61.5643 11.41V5.5H63.0193V11.47C63.0193 12.99 62.6243 14.145 61.8343 14.935C61.0543 15.725 59.9693 16.12 58.5793 16.12ZM70.7895 16.12C69.9895 16.12 69.2495 15.99 68.5695 15.73C67.8995 15.46 67.3145 15.085 66.8145 14.605C66.3245 14.115 65.9395 13.545 65.6595 12.895C65.3795 12.245 65.2395 11.53 65.2395 10.75C65.2395 9.97 65.3795 9.255 65.6595 8.605C65.9395 7.955 66.3295 7.39 66.8295 6.91C67.3295 6.42 67.9145 6.045 68.5845 5.785C69.2645 5.515 70.0045 5.38 70.8045 5.38C71.6145 5.38 72.3595 5.52 73.0395 5.8C73.7295 6.07 74.3145 6.475 74.7945 7.015L73.8195 7.96C73.4195 7.54 72.9695 7.23 72.4695 7.03C71.9695 6.82 71.4345 6.715 70.8645 6.715C70.2745 6.715 69.7245 6.815 69.2145 7.015C68.7145 7.215 68.2795 7.495 67.9095 7.855C67.5395 8.215 67.2495 8.645 67.0395 9.145C66.8395 9.635 66.7395 10.17 66.7395 10.75C66.7395 11.33 66.8395 11.87 67.0395 12.37C67.2495 12.86 67.5395 13.285 67.9095 13.645C68.2795 14.005 68.7145 14.285 69.2145 14.485C69.7245 14.685 70.2745 14.785 70.8645 14.785C71.4345 14.785 71.9695 14.685 72.4695 14.485C72.9695 14.275 73.4195 13.955 73.8195 13.525L74.7945 14.47C74.3145 15.01 73.7295 15.42 73.0395 15.7C72.3595 15.98 71.6095 16.12 70.7895 16.12ZM75.0954 16L79.8504 5.5H81.3354L86.1054 16H84.5304L80.2854 6.34H80.8854L76.6404 16H75.0954ZM77.1204 13.375L77.5254 12.175H83.4354L83.8704 13.375H77.1204ZM89.2293 16V6.805H85.6293V5.5H94.3143V6.805H90.7143V16H89.2293ZM95.948 16V5.5H97.448V16H95.948ZM105.332 16.12C104.532 16.12 103.787 15.985 103.097 15.715C102.417 15.445 101.827 15.07 101.327 14.59C100.827 14.1 100.437 13.53 100.157 12.88C99.8766 12.23 99.7366 11.52 99.7366 10.75C99.7366 9.98 99.8766 9.27 100.157 8.62C100.437 7.97 100.827 7.405 101.327 6.925C101.827 6.435 102.417 6.055 103.097 5.785C103.777 5.515 104.522 5.38 105.332 5.38C106.132 5.38 106.867 5.515 107.537 5.785C108.217 6.045 108.807 6.42 109.307 6.91C109.817 7.39 110.207 7.955 110.477 8.605C110.757 9.255 110.897 9.97 110.897 10.75C110.897 11.53 110.757 12.245 110.477 12.895C110.207 13.545 109.817 14.115 109.307 14.605C108.807 15.085 108.217 15.46 107.537 15.73C106.867 15.99 106.132 16.12 105.332 16.12ZM105.332 14.785C105.912 14.785 106.447 14.685 106.937 14.485C107.437 14.285 107.867 14.005 108.227 13.645C108.597 13.275 108.882 12.845 109.082 12.355C109.292 11.865 109.397 11.33 109.397 10.75C109.397 10.17 109.292 9.635 109.082 9.145C108.882 8.655 108.597 8.23 108.227 7.87C107.867 7.5 107.437 7.215 106.937 7.015C106.447 6.815 105.912 6.715 105.332 6.715C104.742 6.715 104.197 6.815 103.697 7.015C103.207 7.215 102.777 7.5 102.407 7.87C102.037 8.23 101.747 8.655 101.537 9.145C101.337 9.635 101.237 10.17 101.237 10.75C101.237 11.33 101.337 11.865 101.537 12.355C101.747 12.845 102.037 13.275 102.407 13.645C102.777 14.005 103.207 14.285 103.697 14.485C104.197 14.685 104.742 14.785 105.332 14.785ZM113.189 16V5.5H114.419L121.364 14.125H120.719V5.5H122.219V16H120.989L114.044 7.375H114.689V16H113.189Z" fill="#203C8F"/>
<defs>
<clipPath id="clip0_629_229">
<rect width="25" height="20.5477" fill="white"/>
</clipPath>
</defs>
</svg>
