<svg width="159" height="25" viewBox="0 0 159 25" fill="none" xmlns="http://www.w3.org/2000/svg">
<path d="M10.9375 12.9609L8.91406 10.9375L7.8125 12.0391L10.9375 15.1641L17.1875 8.91406L16.0859 7.8125L10.9375 12.9609Z" fill="#203C8F"/>
<path d="M12.5 23.4375L7.67501 20.8648C6.29937 20.1332 5.14899 19.0407 4.34738 17.7046C3.54576 16.3685 3.12318 14.8394 3.12501 13.2813V3.125C3.12501 2.7106 3.28963 2.31317 3.58265 2.02015C3.87568 1.72712 4.27311 1.5625 4.68751 1.5625H20.3125C20.7269 1.5625 21.1243 1.72712 21.4174 2.02015C21.7104 2.31317 21.875 2.7106 21.875 3.125V13.2813C21.8768 14.8394 21.4543 16.3685 20.6526 17.7046C19.851 19.0407 18.7006 20.1332 17.325 20.8648L12.5 23.4375ZM4.68751 3.125V13.2813C4.68664 14.556 5.03272 15.807 5.68866 16.9C6.3446 17.9931 7.28566 18.887 8.41094 19.4859L12.5 21.6664L16.5891 19.4867C17.7145 18.8877 18.6556 17.9937 19.3116 16.9005C19.9675 15.8073 20.3135 14.5561 20.3125 13.2813V3.125H4.68751Z" fill="#203C8F"/>
<path d="M36.522 18.12C35.722 18.12 34.982 17.99 34.302 17.73C33.632 17.46 33.047 17.085 32.547 16.605C32.057 16.115 31.672 15.545 31.392 14.895C31.112 14.245 30.972 13.53 30.972 12.75C30.972 11.97 31.112 11.255 31.392 10.605C31.672 9.955 32.062 9.39 32.562 8.91C33.062 8.42 33.647 8.045 34.317 7.785C34.997 7.515 35.737 7.38 36.537 7.38C37.347 7.38 38.092 7.52 38.772 7.8C39.462 8.07 40.047 8.475 40.527 9.015L39.552 9.96C39.152 9.54 38.702 9.23 38.202 9.03C37.702 8.82 37.167 8.715 36.597 8.715C36.007 8.715 35.457 8.815 34.947 9.015C34.447 9.215 34.012 9.495 33.642 9.855C33.272 10.215 32.982 10.645 32.772 11.145C32.572 11.635 32.472 12.17 32.472 12.75C32.472 13.33 32.572 13.87 32.772 14.37C32.982 14.86 33.272 15.285 33.642 15.645C34.012 16.005 34.447 16.285 34.947 16.485C35.457 16.685 36.007 16.785 36.597 16.785C37.167 16.785 37.702 16.685 38.202 16.485C38.702 16.275 39.152 15.955 39.552 15.525L40.527 16.47C40.047 17.01 39.462 17.42 38.772 17.7C38.092 17.98 37.342 18.12 36.522 18.12ZM45.026 18V13.98L45.371 14.91L40.856 7.5H42.461L46.256 13.755H45.386L49.196 7.5H50.681L46.181 14.91L46.511 13.98V18H45.026ZM52.0271 18V7.5H56.7371C57.9471 7.5 58.8771 7.745 59.5271 8.235C60.1771 8.715 60.5021 9.375 60.5021 10.215C60.5021 10.785 60.3721 11.265 60.1121 11.655C59.8621 12.045 59.5221 12.345 59.0921 12.555C58.6621 12.765 58.1971 12.87 57.6971 12.87L57.9671 12.42C58.5671 12.42 59.0971 12.525 59.5571 12.735C60.0171 12.945 60.3821 13.255 60.6521 13.665C60.9221 14.065 61.0571 14.565 61.0571 15.165C61.0571 16.065 60.7171 16.765 60.0371 17.265C59.3671 17.755 58.3671 18 57.0371 18H52.0271ZM53.5271 16.785H56.9771C57.8071 16.785 58.4421 16.645 58.8821 16.365C59.3221 16.085 59.5421 15.645 59.5421 15.045C59.5421 14.435 59.3221 13.99 58.8821 13.71C58.4421 13.43 57.8071 13.29 56.9771 13.29H53.3921V12.075H56.6021C57.3621 12.075 57.9521 11.935 58.3721 11.655C58.7921 11.375 59.0021 10.955 59.0021 10.395C59.0021 9.835 58.7921 9.415 58.3721 9.135C57.9521 8.855 57.3621 8.715 56.6021 8.715H53.5271V16.785ZM64.7447 12.03H70.1447V13.305H64.7447V12.03ZM64.8797 16.695H70.9997V18H63.3797V7.5H70.7897V8.805H64.8797V16.695ZM73.4285 18V7.5H77.5235C78.4435 7.5 79.2285 7.645 79.8785 7.935C80.5285 8.225 81.0285 8.645 81.3785 9.195C81.7285 9.745 81.9035 10.4 81.9035 11.16C81.9035 11.92 81.7285 12.575 81.3785 13.125C81.0285 13.665 80.5285 14.08 79.8785 14.37C79.2285 14.66 78.4435 14.805 77.5235 14.805H74.2535L74.9285 14.115V18H73.4285ZM80.4485 18L77.7785 14.19H79.3835L82.0835 18H80.4485ZM74.9285 14.265L74.2535 13.53H77.4785C78.4385 13.53 79.1635 13.325 79.6535 12.915C80.1535 12.495 80.4035 11.91 80.4035 11.16C80.4035 10.41 80.1535 9.83 79.6535 9.42C79.1635 9.01 78.4385 8.805 77.4785 8.805H74.2535L74.9285 8.055V14.265ZM87.387 18.12C86.587 18.12 85.822 18 85.092 17.76C84.362 17.51 83.787 17.19 83.367 16.8L83.922 15.63C84.322 15.98 84.832 16.27 85.452 16.5C86.072 16.73 86.717 16.845 87.387 16.845C87.997 16.845 88.492 16.775 88.872 16.635C89.252 16.495 89.532 16.305 89.712 16.065C89.892 15.815 89.982 15.535 89.982 15.225C89.982 14.865 89.862 14.575 89.622 14.355C89.392 14.135 89.087 13.96 88.707 13.83C88.337 13.69 87.927 13.57 87.477 13.47C87.027 13.37 86.572 13.255 86.112 13.125C85.662 12.985 85.247 12.81 84.867 12.6C84.497 12.39 84.197 12.11 83.967 11.76C83.737 11.4 83.622 10.94 83.622 10.38C83.622 9.84 83.762 9.345 84.042 8.895C84.332 8.435 84.772 8.07 85.362 7.8C85.962 7.52 86.722 7.38 87.642 7.38C88.252 7.38 88.857 7.46 89.457 7.62C90.057 7.78 90.577 8.01 91.017 8.31L90.522 9.51C90.072 9.21 89.597 8.995 89.097 8.865C88.597 8.725 88.112 8.655 87.642 8.655C87.052 8.655 86.567 8.73 86.187 8.88C85.807 9.03 85.527 9.23 85.347 9.48C85.177 9.73 85.092 10.01 85.092 10.32C85.092 10.69 85.207 10.985 85.437 11.205C85.677 11.425 85.982 11.6 86.352 11.73C86.732 11.86 87.147 11.98 87.597 12.09C88.047 12.19 88.497 12.305 88.947 12.435C89.407 12.565 89.822 12.735 90.192 12.945C90.572 13.155 90.877 13.435 91.107 13.785C91.337 14.135 91.452 14.585 91.452 15.135C91.452 15.665 91.307 16.16 91.017 16.62C90.727 17.07 90.277 17.435 89.667 17.715C89.067 17.985 88.307 18.12 87.387 18.12ZM95.0084 12.03H100.408V13.305H95.0084V12.03ZM95.1434 16.695H101.263V18H93.6434V7.5H101.053V8.805H95.1434V16.695ZM108.373 18.12C107.573 18.12 106.833 17.99 106.153 17.73C105.483 17.46 104.898 17.085 104.398 16.605C103.908 16.115 103.523 15.545 103.243 14.895C102.963 14.245 102.823 13.53 102.823 12.75C102.823 11.97 102.963 11.255 103.243 10.605C103.523 9.955 103.913 9.39 104.413 8.91C104.913 8.42 105.498 8.045 106.168 7.785C106.848 7.515 107.588 7.38 108.388 7.38C109.198 7.38 109.943 7.52 110.623 7.8C111.313 8.07 111.898 8.475 112.378 9.015L111.403 9.96C111.003 9.54 110.553 9.23 110.053 9.03C109.553 8.82 109.018 8.715 108.448 8.715C107.858 8.715 107.308 8.815 106.798 9.015C106.298 9.215 105.863 9.495 105.493 9.855C105.123 10.215 104.833 10.645 104.623 11.145C104.423 11.635 104.323 12.17 104.323 12.75C104.323 13.33 104.423 13.87 104.623 14.37C104.833 14.86 105.123 15.285 105.493 15.645C105.863 16.005 106.298 16.285 106.798 16.485C107.308 16.685 107.858 16.785 108.448 16.785C109.018 16.785 109.553 16.685 110.053 16.485C110.553 16.275 111.003 15.955 111.403 15.525L112.378 16.47C111.898 17.01 111.313 17.42 110.623 17.7C109.943 17.98 109.193 18.12 108.373 18.12ZM118.867 18.12C117.487 18.12 116.402 17.725 115.612 16.935C114.822 16.145 114.427 14.99 114.427 13.47V7.5H115.927V13.41C115.927 14.58 116.182 15.435 116.692 15.975C117.212 16.515 117.942 16.785 118.882 16.785C119.832 16.785 120.562 16.515 121.072 15.975C121.592 15.435 121.852 14.58 121.852 13.41V7.5H123.307V13.47C123.307 14.99 122.912 16.145 122.122 16.935C121.342 17.725 120.257 18.12 118.867 18.12ZM126.383 18V7.5H130.478C131.398 7.5 132.183 7.645 132.833 7.935C133.483 8.225 133.983 8.645 134.333 9.195C134.683 9.745 134.858 10.4 134.858 11.16C134.858 11.92 134.683 12.575 134.333 13.125C133.983 13.665 133.483 14.08 132.833 14.37C132.183 14.66 131.398 14.805 130.478 14.805H127.208L127.883 14.115V18H126.383ZM133.403 18L130.733 14.19H132.338L135.038 18H133.403ZM127.883 14.265L127.208 13.53H130.433C131.393 13.53 132.118 13.325 132.608 12.915C133.108 12.495 133.358 11.91 133.358 11.16C133.358 10.41 133.108 9.83 132.608 9.42C132.118 9.01 131.393 8.805 130.433 8.805H127.208L127.883 8.055V14.265ZM137.281 18V7.5H138.781V18H137.281ZM144.01 18V8.805H140.41V7.5H149.095V8.805H145.495V18H144.01ZM153.146 18V13.98L153.491 14.91L148.976 7.5H150.581L154.376 13.755H153.506L157.316 7.5H158.801L154.301 14.91L154.631 13.98V18H153.146Z" fill="#203C8F"/>
</svg>
