<svg width="94" height="25" viewBox="0 0 94 25" fill="none" xmlns="http://www.w3.org/2000/svg">
<g clip-path="url(#clip0_629_221)">
<path d="M23.7915 12.6436C23.7915 15.5609 22.6326 18.3588 20.5697 20.4217C18.5068 22.4846 15.7089 23.6436 12.7915 23.6436C9.87412 23.6436 7.07623 22.4846 5.01333 20.4217C2.95043 18.3588 1.7915 15.5609 1.7915 12.6436M23.7915 12.6436C23.7915 9.72617 22.6326 6.92828 20.5697 4.86538C18.5068 2.80248 15.7089 1.64355 12.7915 1.64355C9.87412 1.64355 7.07623 2.80248 5.01333 4.86538C2.95043 6.92828 1.7915 9.72617 1.7915 12.6436M23.7915 12.6436H1.7915" stroke="#203C8F" stroke-width="1.90014" stroke-linecap="round" stroke-linejoin="round"/>
<path d="M17.0226 12.6436C16.8148 16.6662 15.3331 20.5185 12.7918 23.6436C10.2505 20.5185 8.76885 16.6662 8.56104 12.6436C8.76885 8.62096 10.2505 4.76866 12.7918 1.64355C15.3331 4.76866 16.8148 8.62096 17.0226 12.6436Z" stroke="#203C8F" stroke-width="1.90014" stroke-linecap="round" stroke-linejoin="round"/>
</g>
<path d="M34.0344 18L30.5244 7.5H32.0694L35.2944 17.19H34.5144L37.8594 7.5H39.2394L42.5094 17.19H41.7594L45.0294 7.5H46.4544L42.9444 18H41.3694L38.3094 9.015H38.7144L35.6394 18H34.0344ZM49.6544 12.03H55.0544V13.305H49.6544V12.03ZM49.7894 16.695H55.9094V18H48.2894V7.5H55.6994V8.805H49.7894V16.695ZM58.3382 18V7.5H63.0482C64.2582 7.5 65.1882 7.745 65.8382 8.235C66.4882 8.715 66.8132 9.375 66.8132 10.215C66.8132 10.785 66.6832 11.265 66.4232 11.655C66.1732 12.045 65.8332 12.345 65.4032 12.555C64.9732 12.765 64.5082 12.87 64.0082 12.87L64.2782 12.42C64.8782 12.42 65.4082 12.525 65.8682 12.735C66.3282 12.945 66.6932 13.255 66.9632 13.665C67.2332 14.065 67.3682 14.565 67.3682 15.165C67.3682 16.065 67.0282 16.765 66.3482 17.265C65.6782 17.755 64.6782 18 63.3482 18H58.3382ZM59.8382 16.785H63.2882C64.1182 16.785 64.7532 16.645 65.1932 16.365C65.6332 16.085 65.8532 15.645 65.8532 15.045C65.8532 14.435 65.6332 13.99 65.1932 13.71C64.7532 13.43 64.1182 13.29 63.2882 13.29H59.7032V12.075H62.9132C63.6732 12.075 64.2632 11.935 64.6832 11.655C65.1032 11.375 65.3132 10.955 65.3132 10.395C65.3132 9.835 65.1032 9.415 64.6832 9.135C64.2632 8.855 63.6732 8.715 62.9132 8.715H59.8382V16.785ZM76.074 18.12C75.334 18.12 74.614 18.005 73.914 17.775C73.224 17.545 72.659 17.235 72.219 16.845L72.909 15.66C73.259 15.99 73.714 16.26 74.274 16.47C74.834 16.68 75.434 16.785 76.074 16.785C76.854 16.785 77.459 16.62 77.889 16.29C78.329 15.95 78.549 15.495 78.549 14.925C78.549 14.375 78.339 13.935 77.919 13.605C77.509 13.265 76.854 13.095 75.954 13.095H75.114V12.045L78.234 8.205L78.444 8.805H72.699V7.5H79.629V8.52L76.524 12.345L75.744 11.88H76.239C77.509 11.88 78.459 12.165 79.089 12.735C79.729 13.305 80.049 14.03 80.049 14.91C80.049 15.5 79.904 16.04 79.614 16.53C79.324 17.02 78.884 17.41 78.294 17.7C77.714 17.98 76.974 18.12 76.074 18.12ZM82.438 18.09C82.158 18.09 81.918 17.995 81.718 17.805C81.518 17.605 81.418 17.355 81.418 17.055C81.418 16.755 81.518 16.51 81.718 16.32C81.918 16.13 82.158 16.035 82.438 16.035C82.708 16.035 82.938 16.13 83.128 16.32C83.328 16.51 83.428 16.755 83.428 17.055C83.428 17.355 83.328 17.605 83.128 17.805C82.938 17.995 82.708 18.09 82.438 18.09ZM88.9607 18.12C88.1407 18.12 87.4057 17.91 86.7557 17.49C86.1157 17.07 85.6057 16.46 85.2257 15.66C84.8557 14.86 84.6707 13.89 84.6707 12.75C84.6707 11.61 84.8557 10.64 85.2257 9.84C85.6057 9.04 86.1157 8.43 86.7557 8.01C87.4057 7.59 88.1407 7.38 88.9607 7.38C89.7707 7.38 90.5007 7.59 91.1507 8.01C91.8007 8.43 92.3107 9.04 92.6807 9.84C93.0507 10.64 93.2357 11.61 93.2357 12.75C93.2357 13.89 93.0507 14.86 92.6807 15.66C92.3107 16.46 91.8007 17.07 91.1507 17.49C90.5007 17.91 89.7707 18.12 88.9607 18.12ZM88.9607 16.785C89.5107 16.785 89.9907 16.635 90.4007 16.335C90.8207 16.035 91.1457 15.585 91.3757 14.985C91.6157 14.385 91.7357 13.64 91.7357 12.75C91.7357 11.86 91.6157 11.115 91.3757 10.515C91.1457 9.915 90.8207 9.465 90.4007 9.165C89.9907 8.865 89.5107 8.715 88.9607 8.715C88.4107 8.715 87.9257 8.865 87.5057 9.165C87.0857 9.465 86.7557 9.915 86.5157 10.515C86.2857 11.115 86.1707 11.86 86.1707 12.75C86.1707 13.64 86.2857 14.385 86.5157 14.985C86.7557 15.585 87.0857 16.035 87.5057 16.335C87.9257 16.635 88.4107 16.785 88.9607 16.785Z" fill="#203C8F"/>
<defs>
<clipPath id="clip0_629_221">
<rect width="25" height="25" fill="white"/>
</clipPath>
</defs>
</svg>
