<svg width="103" height="25" viewBox="0 0 103 25" fill="none" xmlns="http://www.w3.org/2000/svg">
<path d="M12.5005 18.75C11.2644 18.75 10.056 18.3834 9.02818 17.6967C8.00037 17.0099 7.19929 16.0338 6.72624 14.8918C6.2532 13.7497 6.12943 12.4931 6.37058 11.2807C6.61174 10.0683 7.207 8.95466 8.08107 8.08058C8.95515 7.20651 10.0688 6.61125 11.2812 6.37009C12.4936 6.12894 13.7502 6.25271 14.8923 6.72576C16.0343 7.1988 17.0104 7.99988 17.6972 9.02769C18.3839 10.0555 18.7505 11.2639 18.7505 12.5C18.7484 14.157 18.0893 15.7455 16.9176 16.9171C15.746 18.0888 14.1575 18.7479 12.5005 18.75ZM12.5005 7.8125C11.5734 7.8125 10.6671 8.08742 9.89626 8.60249C9.1254 9.11756 8.52459 9.84965 8.16981 10.7062C7.81502 11.5627 7.72219 12.5052 7.90306 13.4145C8.08393 14.3238 8.53037 15.159 9.18593 15.8146C9.84149 16.4701 10.6767 16.9166 11.586 17.0974C12.4953 17.2783 13.4378 17.1855 14.2943 16.8307C15.1508 16.4759 15.8829 15.8751 16.398 15.1042C16.9131 14.3334 17.188 13.4271 17.188 12.5C17.1865 11.2572 16.6922 10.0658 15.8135 9.18704C14.9347 8.30827 13.7432 7.81395 12.5005 7.8125Z" fill="#203C8F"/>
<path d="M23.4375 10.9375H21.7344C21.4076 9.02164 20.494 7.25452 19.1198 5.88025C17.7455 4.50597 15.9784 3.59236 14.0625 3.26562V1.5625H10.9375V3.26562C9.02164 3.59236 7.25452 4.50597 5.88025 5.88025C4.50597 7.25452 3.59236 9.02164 3.26562 10.9375H1.5625V14.0625H3.26562C3.59236 15.9784 4.50597 17.7455 5.88025 19.1198C7.25452 20.494 9.02164 21.4076 10.9375 21.7344V23.4375H14.0625V21.7344C15.9784 21.4076 17.7455 20.494 19.1198 19.1198C20.494 17.7455 21.4076 15.9784 21.7344 14.0625H23.4375V10.9375ZM12.5 20.3125C10.9548 20.3125 9.44437 19.8543 8.15961 18.9959C6.87485 18.1374 5.8735 16.9173 5.28219 15.4897C4.69088 14.0622 4.53617 12.4913 4.83762 10.9759C5.13906 9.46038 5.88313 8.06833 6.97573 6.97573C8.06833 5.88313 9.46038 5.13906 10.9759 4.83762C12.4913 4.53617 14.0622 4.69088 15.4897 5.28219C16.9173 5.8735 18.1374 6.87485 18.9959 8.15961C19.8543 9.44437 20.3125 10.9548 20.3125 12.5C20.3104 14.5714 19.4867 16.5573 18.022 18.022C16.5573 19.4867 14.5714 20.3104 12.5 20.3125Z" fill="#203C8F"/>
<path d="M31.952 18V7.5H33.182L37.892 15.435H37.232L41.882 7.5H43.112L43.127 18H41.687L41.672 9.765H42.017L37.877 16.725H37.187L33.017 9.765H33.392V18H31.952ZM46.2781 18V7.5H47.7781V18H46.2781ZM50.9217 18V7.5H52.4217V16.695H58.1067V18H50.9217ZM59.8279 18V7.5H61.3279V18H59.8279ZM66.5565 18V8.805H62.9565V7.5H71.6415V8.805H68.0415V18H66.5565ZM71.1579 18L75.9129 7.5H77.3979L82.1679 18H80.5929L76.3479 8.34H76.9479L72.7029 18H71.1579ZM73.1829 15.375L73.5879 14.175H79.4979L79.9329 15.375H73.1829ZM83.7342 18V7.5H87.8292C88.7492 7.5 89.5342 7.645 90.1842 7.935C90.8342 8.225 91.3342 8.645 91.6842 9.195C92.0342 9.745 92.2092 10.4 92.2092 11.16C92.2092 11.92 92.0342 12.575 91.6842 13.125C91.3342 13.665 90.8342 14.08 90.1842 14.37C89.5342 14.66 88.7492 14.805 87.8292 14.805H84.5592L85.2342 14.115V18H83.7342ZM90.7542 18L88.0842 14.19H89.6892L92.3892 18H90.7542ZM85.2342 14.265L84.5592 13.53H87.7842C88.7442 13.53 89.4692 13.325 89.9592 12.915C90.4592 12.495 90.7092 11.91 90.7092 11.16C90.7092 10.41 90.4592 9.83 89.9592 9.42C89.4692 9.01 88.7442 8.805 87.7842 8.805H84.5592L85.2342 8.055V14.265ZM97.0211 18V13.98L97.3661 14.91L92.8511 7.5H94.4561L98.2511 13.755H97.3811L101.191 7.5H102.676L98.1761 14.91L98.5061 13.98V18H97.0211Z" fill="#203C8F"/>
</svg>
