<svg width="48" height="48" viewBox="0 0 48 48" fill="none" xmlns="http://www.w3.org/2000/svg">
<path d="M24 9C15.7157 9 9 15.7157 9 24C9 32.2843 15.7157 39 24 39C32.2843 39 39 32.2843 39 24C39 15.7157 32.2843 9 24 9ZM22.625 36.9281C20.3165 36.6809 18.116 35.821 16.2515 34.4375C14.3871 33.054 12.9264 31.1971 12.0208 29.0593C11.9981 29.0056 11.9767 28.9516 11.9548 28.8976L22.625 34.8712V36.9281ZM22.625 32.5792L11.1806 26.1725C11.0602 25.4546 10.9998 24.7279 11 24C11 23.587 11.0192 23.1772 11.0576 22.7706L22.625 29.2462V32.5792ZM22.625 26.9542L11.4262 20.685C11.5825 20.09 11.7812 19.507 12.0208 18.9404C12.1361 18.6676 12.2604 18.3998 12.3938 18.1369L22.625 23.8709V26.9542ZM22.625 21.5782L13.4321 16.4262C13.846 15.8502 14.306 15.3089 14.8076 14.8074C14.9626 14.6524 15.121 14.5019 15.2826 14.3557L22.625 18.3767V21.5782ZM22.625 16.0965L17.022 13.0282C18.7128 11.9507 20.631 11.2809 22.625 11.0719V16.0965ZM37 24C37.0035 27.3407 35.7194 30.5541 33.4147 32.9725C31.11 35.3908 27.962 36.8279 24.625 36.9851V11.0149C27.9619 11.1723 31.1098 12.6095 33.4144 15.0278C35.7191 17.4461 37.0032 20.6594 37 24Z" fill="black"/>
</svg>
