<svg width="49" height="48" viewBox="0 0 49 48" fill="none" xmlns="http://www.w3.org/2000/svg">
<path d="M35.5 10.9999H13.5C12.3954 10.9999 11.5 11.8954 11.5 12.9999V34.9999C11.5 36.1045 12.3954 36.9999 13.5 36.9999H35.5C36.6046 36.9999 37.5 36.1045 37.5 34.9999V12.9999C37.5 11.8954 36.6046 10.9999 35.5 10.9999Z" stroke="black" stroke-width="2"/>
<path d="M19.5 21.0001C20.6046 21.0001 21.5 20.1046 21.5 19.0001C21.5 17.8955 20.6046 17.0001 19.5 17.0001C18.3954 17.0001 17.5 17.8955 17.5 19.0001C17.5 20.1046 18.3954 21.0001 19.5 21.0001Z" stroke="black" stroke-width="2"/>
<path d="M16.5 32.0001L19.5 27.0001L22.5 32.0001L27.5 24.0001L32.5 32.0001" stroke="black" stroke-width="2" stroke-linecap="round" stroke-linejoin="round"/>
</svg>
