<svg width="75" height="75" viewBox="0 0 75 75" fill="none" xmlns="http://www.w3.org/2000/svg">
<path d="M45.6859 27.1711C43.3898 29.4672 40.2757 30.7571 37.0286 30.7571C33.7814 30.7571 30.6673 29.4672 28.3712 27.1711C26.0751 24.875 24.7852 21.7609 24.7852 18.5138C24.7852 15.2666 26.0751 12.1525 28.3712 9.85643C30.6673 7.56036 33.7814 6.27044 37.0286 6.27044C40.2757 6.27044 43.3898 7.56036 45.6859 9.85643C47.982 12.1525 49.2719 15.2666 49.2719 18.5138C49.2719 21.7609 47.982 24.875 45.6859 27.1711ZM22.3558 37.7839C20.9278 39.212 18.991 40.0143 16.9714 40.0143C14.9518 40.0143 13.015 39.212 11.587 37.7839C10.1589 36.3559 9.35664 34.4191 9.35664 32.3995C9.35664 30.3799 10.1589 28.4431 11.587 27.0151C13.015 25.587 14.9518 24.7847 16.9714 24.7847C18.991 24.7847 20.9278 25.587 22.3558 27.0151C23.7839 28.4431 24.5862 30.3799 24.5862 32.3995C24.5862 34.4191 23.7839 36.3559 22.3558 37.7839ZM64.7005 32.3995C64.7005 34.4191 63.8982 36.3559 62.4702 37.7839C61.0421 39.212 59.1053 40.0143 57.0857 40.0143C55.0662 40.0143 53.1293 39.212 51.7013 37.7839C50.2732 36.3559 49.471 34.4191 49.471 32.3995C49.471 30.3799 50.2732 28.4431 51.7013 27.0151C53.1293 25.587 55.0662 24.7847 57.0857 24.7847C59.1053 24.7847 61.0421 25.587 62.4702 27.0151C63.8982 28.4431 64.7005 30.3799 64.7005 32.3995ZM37.0286 34.0419C41.0941 34.0419 44.9931 35.6569 47.8678 38.5317C50.7426 41.4064 52.3576 45.3054 52.3576 49.3709V67.7857H21.6995V49.3709C21.6995 45.3054 23.3145 41.4064 26.1893 38.5317C29.064 35.6569 32.963 34.0419 37.0286 34.0419ZM15.8035 43.3602L16.1808 43.3291C15.6245 45.2473 15.329 47.2738 15.329 49.3709V67.7857H6.27093V53.9995H6.17139L6.27093 53.9995C6.27024 51.3633 7.24272 48.8196 9.00188 46.8562C10.7607 44.8931 13.1822 43.6483 15.8022 43.3603C15.8026 43.3603 15.8031 43.3602 15.8035 43.3602ZM67.7862 53.9995V67.7857H58.7281V49.3709C58.7281 47.2729 58.4295 45.2456 57.8754 43.3269C60.5433 43.5243 63.0426 44.7143 64.8783 46.665C66.7465 48.6502 67.7865 51.2735 67.7862 53.9995Z" fill="white" stroke="white" stroke-width="0.199079"/>
</svg>
