<svg width="75" height="75" viewBox="0 0 75 75" fill="none" xmlns="http://www.w3.org/2000/svg">
<path d="M37.0287 30.8571C40.3022 30.8571 43.4417 29.5567 45.7564 27.242C48.0711 24.9272 49.3716 21.7878 49.3716 18.5143C49.3716 15.2407 48.0711 12.1013 45.7564 9.78653C43.4417 7.47179 40.3022 6.17139 37.0287 6.17139C33.7552 6.17139 30.6157 7.47179 28.301 9.78653C25.9862 12.1013 24.6858 15.2407 24.6858 18.5143C24.6858 21.7878 25.9862 24.9272 28.301 27.242C30.6157 29.5567 33.7552 30.8571 37.0287 30.8571ZM37.0287 33.9428C41.1206 33.9428 45.0449 35.5684 47.9383 38.4618C50.8318 41.3552 52.4573 45.2795 52.4573 49.3714V67.8857H21.6001V49.3714C21.6001 45.2795 23.2256 41.3552 26.119 38.4618C29.0124 35.5684 32.9368 33.9428 37.0287 33.9428Z" fill="white"/>
</svg>
