<svg width="62" height="63" viewBox="0 0 62 63" fill="none" xmlns="http://www.w3.org/2000/svg">
<path d="M26.8098 32.5186L21.8501 27.5589L19.15 30.259L26.8098 37.9188L42.1294 22.5992L39.4293 19.8992L26.8098 32.5186Z" fill="#203C8F"/>
<path d="M30.6391 58.1978L18.8124 51.8919C15.4406 50.0985 12.6209 47.4206 10.656 44.1457C8.69112 40.8708 7.65533 37.1226 7.6598 33.3035V8.40923C7.6598 7.39348 8.06331 6.41934 8.78155 5.70109C9.4998 4.98285 10.4739 4.57935 11.4897 4.57935H49.7886C50.8043 4.57935 51.7785 4.98285 52.4967 5.70109C53.2149 6.41934 53.6185 7.39348 53.6185 8.40923V33.3035C53.6229 37.1226 52.5871 40.8708 50.6223 44.1457C48.6574 47.4206 45.8377 50.0985 42.4658 51.8919L30.6391 58.1978ZM11.4897 8.40923V33.3035C11.4876 36.4281 12.3359 39.4944 13.9437 42.1736C15.5514 44.8528 17.8581 47.0439 20.6163 48.512L30.6391 53.8566L40.6619 48.5139C43.4204 47.0456 45.7273 44.8542 47.3351 42.1747C48.9429 39.4951 49.791 36.4284 49.7886 33.3035V8.40923H11.4897Z" fill="#203C8F"/>
</svg>
