<svg width="50" height="50" viewBox="0 0 50 50" fill="none" xmlns="http://www.w3.org/2000/svg">
<rect width="50" height="50" rx="25" fill="#203C8F"/>
<path fill-rule="evenodd" clip-rule="evenodd" d="M19.8855 15.2917C19.8855 13.8026 20.477 12.3745 21.53 11.3216C22.5829 10.2686 24.011 9.67709 25.5001 9.67709C26.9892 9.67709 28.4173 10.2686 29.4702 11.3216C30.5231 12.3745 31.1147 13.8026 31.1147 15.2917C31.1147 16.7808 30.5231 18.2088 29.4702 19.2618C28.4173 20.3147 26.9892 20.9063 25.5001 20.9063C24.011 20.9063 22.5829 20.3147 21.53 19.2618C20.477 18.2088 19.8855 16.7808 19.8855 15.2917ZM25.5001 12.7396C24.8232 12.7396 24.1741 13.0085 23.6955 13.4871C23.2169 13.9657 22.948 14.6148 22.948 15.2917C22.948 15.9685 23.2169 16.6177 23.6955 17.0963C24.1741 17.5749 24.8232 17.8438 25.5001 17.8438C26.1769 17.8438 26.8261 17.5749 27.3047 17.0963C27.7833 16.6177 28.0522 15.9685 28.0522 15.2917C28.0522 14.6148 27.7833 13.9657 27.3047 13.4871C26.8261 13.0085 26.1769 12.7396 25.5001 12.7396Z" fill="white"/>
<path d="M11.841 20.8182C11.9994 20.4444 12.2999 20.1487 12.6762 19.9964C13.0526 19.844 13.4741 19.8473 13.848 20.0056L13.85 20.0077L13.8623 20.0138L13.9174 20.0363L14.142 20.1281C14.3448 20.2112 14.6306 20.3228 14.9995 20.463C15.7345 20.7427 16.7655 21.1163 17.9497 21.4879C20.3548 22.2433 23.2315 22.9477 25.4998 22.9477C27.768 22.9477 30.6447 22.2433 33.0498 21.4879C34.4115 21.0564 35.756 20.5722 37.0801 20.0363L37.1373 20.0138L37.1495 20.0077H37.1515C37.5224 19.8637 37.9347 19.8697 38.3012 20.0245C38.6677 20.1792 38.9596 20.4705 39.1151 20.8367C39.2706 21.2028 39.2774 21.6151 39.1343 21.9863C38.9911 22.3574 38.7091 22.6583 38.348 22.8252L38.3398 22.8293L38.3194 22.8374L38.254 22.866L38.0029 22.9681C36.6766 23.4988 35.3309 23.9796 33.9686 24.4095C31.9514 25.0424 29.4034 25.7141 27.031 25.9346V28.4663C27.031 29.3442 27.2842 30.2078 27.7599 30.949L32.913 38.9625C33.0219 39.1317 33.0964 39.3207 33.1322 39.5186C33.168 39.7166 33.1645 39.9197 33.1218 40.1163C33.0792 40.3129 32.9982 40.4991 32.8836 40.6644C32.7689 40.8298 32.6228 40.9709 32.4537 41.0797C32.2845 41.1886 32.0955 41.263 31.8976 41.2989C31.6996 41.3347 31.4965 41.3312 31.2999 41.2885C31.1033 41.2459 30.917 41.1649 30.7517 41.0503C30.5864 40.9356 30.4453 40.7895 30.3365 40.6203L25.4998 33.0948L20.661 40.6203C20.556 40.7974 20.4163 40.9514 20.2504 41.0732C20.0844 41.195 19.8957 41.2821 19.6953 41.3293C19.495 41.3765 19.2871 41.3828 19.0843 41.3479C18.8814 41.313 18.6877 41.2375 18.5147 41.126C18.3417 41.0145 18.1929 40.8692 18.0773 40.6989C17.9617 40.5286 17.8816 40.3368 17.8418 40.1348C17.802 39.9329 17.8034 39.725 17.8457 39.5235C17.8881 39.3221 17.9707 39.1313 18.0885 38.9625L23.2396 30.949C23.7158 30.2078 23.9688 29.3453 23.9685 28.4643V25.9346C21.5961 25.7141 19.0481 25.0445 17.0289 24.4095C15.5811 23.9521 14.1522 23.4372 12.7455 22.866L12.6781 22.8374L12.6597 22.8293L12.6515 22.8272C12.4664 22.7486 12.2985 22.6342 12.1575 22.4907C12.0165 22.3472 11.9052 22.1773 11.83 21.9907C11.7547 21.8041 11.7169 21.6045 11.7188 21.4034C11.7207 21.2022 11.7622 21.0033 11.841 20.8182Z" fill="white"/>
</svg>
