<svg width="62" height="63" viewBox="0 0 62 63" fill="none" xmlns="http://www.w3.org/2000/svg">
<path d="M30.6397 46.7087C27.6098 46.7087 24.6479 45.8102 22.1286 44.1269C19.6093 42.4435 17.6458 40.051 16.4863 37.2517C15.3268 34.4524 15.0234 31.3721 15.6145 28.4004C16.2056 25.4287 17.6646 22.6991 19.8071 20.5566C21.9496 18.4141 24.6793 16.9551 27.651 16.3639C30.6227 15.7728 33.7029 16.0762 36.5022 17.2357C39.3015 18.3952 41.6941 20.3588 43.3774 22.878C45.0608 25.3973 45.9592 28.3592 45.9592 31.3891C45.9542 35.4506 44.3385 39.3442 41.4666 42.2161C38.5948 45.088 34.7011 46.7036 30.6397 46.7087ZM30.6397 19.8995C28.3672 19.8995 26.1458 20.5733 24.2564 21.8358C22.3669 23.0983 20.8942 24.8928 20.0246 26.9922C19.155 29.0917 18.9275 31.4019 19.3708 33.6307C19.8141 35.8594 20.9084 37.9067 22.5153 39.5136C24.1221 41.1204 26.1694 42.2147 28.3982 42.658C30.6269 43.1014 32.9371 42.8738 35.0366 42.0042C37.136 41.1346 38.9305 39.6619 40.193 37.7725C41.4555 35.883 42.1293 33.6616 42.1293 31.3891C42.1258 28.343 40.9141 25.4226 38.7602 23.2686C36.6062 21.1147 33.6858 19.903 30.6397 19.8995Z" fill="#203C8F"/>
<path d="M57.4489 27.5592H53.2743C52.4735 22.8631 50.2341 18.5317 46.8656 15.1632C43.4971 11.7947 39.1656 9.55528 34.4696 8.75441V4.57983H26.8098V8.75441C22.1138 9.55528 17.7824 11.7947 14.4138 15.1632C11.0453 18.5317 8.80595 22.8631 8.00508 27.5592H3.83051V35.2189H8.00508C8.80595 39.9149 11.0453 44.2464 14.4138 47.6149C17.7824 50.9834 22.1138 53.2228 26.8098 54.0237V58.1983H34.4696V54.0237C39.1656 53.2228 43.4971 50.9834 46.8656 47.6149C50.2341 44.2464 52.4735 39.9149 53.2743 35.2189H57.4489V27.5592ZM30.6397 50.5385C26.8523 50.5385 23.15 49.4154 20.0009 47.3112C16.8518 45.2071 14.3973 42.2163 12.9479 38.7172C11.4986 35.2181 11.1193 31.3678 11.8582 27.6532C12.5971 23.9385 14.4209 20.5264 17.099 17.8483C19.7771 15.1703 23.1892 13.3464 26.9038 12.6076C30.6185 11.8687 34.4688 12.2479 37.9679 13.6973C41.467 15.1466 44.4577 17.6011 46.5619 20.7502C48.6661 23.8993 49.7892 27.6016 49.7892 31.389C49.7841 36.4662 47.7649 41.334 44.1748 44.9241C40.5847 48.5143 35.7169 50.5334 30.6397 50.5385Z" fill="#203C8F"/>
</svg>
