<svg width="62" height="63" viewBox="0 0 62 63" fill="none" xmlns="http://www.w3.org/2000/svg">
<g clip-path="url(#clip0_251_81)">
<g filter="url(#filter0_d_251_81)">
<path d="M58.316 31.7407C58.316 38.8916 55.4753 45.7496 50.4189 50.806C45.3624 55.8625 38.5045 58.7031 31.3536 58.7031C24.2027 58.7031 17.3447 55.8625 12.2883 50.806C7.23185 45.7496 4.39117 38.8916 4.39117 31.7407M58.316 31.7407C58.316 24.5899 55.4753 17.7319 50.4189 12.6754C45.3624 7.61899 38.5045 4.77832 31.3536 4.77832C24.2027 4.77832 17.3447 7.61899 12.2883 12.6754C7.23185 17.7319 4.39117 24.5899 4.39117 31.7407M58.316 31.7407H4.39117" stroke="#203C8F" stroke-width="4.65749" stroke-linecap="round" stroke-linejoin="round"/>
<path d="M41.7247 31.7407C41.2153 41.6006 37.5836 51.0431 31.3545 58.7031C25.1255 51.0431 21.4938 41.6006 20.9844 31.7407C21.4938 21.8808 25.1255 12.4383 31.3545 4.77832C37.5836 12.4383 41.2153 21.8808 41.7247 31.7407Z" stroke="#203C8F" stroke-width="4.65749" stroke-linecap="round" stroke-linejoin="round"/>
</g>
</g>
<defs>
<filter id="filter0_d_251_81" x="-1.93756" y="2.44946" width="66.5823" height="66.5825" filterUnits="userSpaceOnUse" color-interpolation-filters="sRGB">
<feFlood flood-opacity="0" result="BackgroundImageFix"/>
<feColorMatrix in="SourceAlpha" type="matrix" values="0 0 0 0 0 0 0 0 0 0 0 0 0 0 0 0 0 0 127 0" result="hardAlpha"/>
<feOffset dy="4"/>
<feGaussianBlur stdDeviation="2"/>
<feComposite in2="hardAlpha" operator="out"/>
<feColorMatrix type="matrix" values="0 0 0 0 0 0 0 0 0 0 0 0 0 0 0 0 0 0 0.25 0"/>
<feBlend mode="normal" in2="BackgroundImageFix" result="effect1_dropShadow_251_81"/>
<feBlend mode="normal" in="SourceGraphic" in2="effect1_dropShadow_251_81" result="shape"/>
</filter>
<clipPath id="clip0_251_81">
<rect width="61.2782" height="61.2782" fill="white" transform="translate(0 0.749512)"/>
</clipPath>
</defs>
</svg>
